<?xml version="1.0" encoding="UTF-8" standalone="no"?>
<svg
   xmlns:dc="http://purl.org/dc/elements/1.1/"
   xmlns:cc="http://creativecommons.org/ns#"
   xmlns:rdf="http://www.w3.org/1999/02/22-rdf-syntax-ns#"
   xmlns:svg="http://www.w3.org/2000/svg"
   xmlns="http://www.w3.org/2000/svg"
   xmlns:xlink="http://www.w3.org/1999/xlink"
   xmlns:sodipodi="http://sodipodi.sourceforge.net/DTD/sodipodi-0.dtd"
   xmlns:inkscape="http://www.inkscape.org/namespaces/inkscape"
   version="1.1"
   id="Layer_1"
   x="0px"
   y="0px"
   width="100px"
   height="100px"
   viewBox="0 0 100 100"
   enable-background="new 0 0 100 100"
   xml:space="preserve"
   inkscape:version="0.48.3.1 r9886"
   sodipodi:docname="logo.svg"
   inkscape:export-filename="logo128.png"
   inkscape:export-xdpi="115.2"
   inkscape:export-ydpi="115.2"><metadata
   id="metadata9"><rdf:RDF><cc:Work
       rdf:about=""><dc:format>image/svg+xml</dc:format><dc:type
         rdf:resource="http://purl.org/dc/dcmitype/StillImage" /><dc:title></dc:title></cc:Work></rdf:RDF></metadata><defs
   id="defs7"><linearGradient
     id="linearGradient3864"><stop
       style="stop-color:#ffffff;stop-opacity:0;"
       offset="0"
       id="stop3866" /><stop
       style="stop-color:#000000;stop-opacity:1;"
       offset="1"
       id="stop3868" /></linearGradient><linearGradient
     inkscape:collect="always"
     id="linearGradient3828"><stop
       style="stop-color:#ff4c4c;stop-opacity:1;"
       offset="0"
       id="stop3830" /><stop
       style="stop-color:#ff4c4c;stop-opacity:0;"
       offset="1"
       id="stop3832" /></linearGradient><linearGradient
     inkscape:collect="always"
     id="linearGradient3758"><stop
       style="stop-color:#ff4c4c;stop-opacity:1;"
       offset="0"
       id="stop3760" /><stop
       style="stop-color:#ff4c4c;stop-opacity:0;"
       offset="1"
       id="stop3762" /></linearGradient><linearGradient
     inkscape:collect="always"
     xlink:href="#linearGradient3758"
     id="linearGradient3764"
     x1="36.150002"
     y1="69.000275"
     x2="-21.778999"
     y2="132.00027"
     gradientUnits="userSpaceOnUse"
     gradientTransform="translate(-1.6855,-2.6963693e-4)" /><linearGradient
     inkscape:collect="always"
     xlink:href="#linearGradient3828"
     id="linearGradient3834"
     x1="86"
     y1="-154"
     x2="88"
     y2="-71"
     gradientUnits="userSpaceOnUse" /><linearGradient
     inkscape:collect="always"
     xlink:href="#linearGradient3864"
     id="linearGradient3870"
     x1="29"
     y1="-64"
     x2="105"
     y2="-64"
     gradientUnits="userSpaceOnUse" /><radialGradient
     inkscape:collect="always"
     xlink:href="#linearGradient3864"
     id="radialGradient3946"
     cx="133.19528"
     cy="-37.411369"
     fx="133.19528"
     fy="-37.411369"
     r="37.5355"
     gradientTransform="matrix(1.2948994,1.423993,-1.4413431,1.310677,-190.16686,-73.931484)"
     gradientUnits="userSpaceOnUse" /></defs><sodipodi:namedview
   pagecolor="#ffffff"
   bordercolor="#666666"
   borderopacity="1"
   objecttolerance="10"
   gridtolerance="10"
   guidetolerance="10"
   inkscape:pageopacity="0"
   inkscape:pageshadow="2"
   inkscape:window-width="1678"
   inkscape:window-height="1030"
   id="namedview5"
   showgrid="false"
   inkscape:zoom="1"
   inkscape:cx="61.212934"
   inkscape:cy="50"
   inkscape:window-x="1680"
   inkscape:window-y="18"
   inkscape:window-maximized="1"
   inkscape:current-layer="Layer_1" />
<path
   d="m 87.5355,47.53073 c 0,18.019 -16.818,32.612 -37.535,32.612 -4.924,0 -9.597,-0.819 -13.912,-2.316 -6.015,3.292 -11.369,5.537 -18.54,6.944 -2.143,0.439 -2.996,0.396 -3.179,0.131 -0.212,-0.312 0.492,-0.924 1.115,-1.426 6.941,-5.421 8.101,-8.258 9.78,-11.437 -7.85,-5.944 -12.8,-14.728 -12.8,-24.508 0,-18.02 16.792,-32.632 37.536,-32.632 20.716,-0.001 37.535,14.612 37.535,32.632 z"
   id="path3"
   style="fill:url(#linearGradient3764);fill-opacity:1"
   inkscape:connector-curvature="0" />
<path
   style="opacity:0.19626168;fill:url(#radialGradient3946);fill-opacity:1"
   id="path3942"
   d="m 87.5355,47.53073 c 0,18.019 -16.818,32.612 -37.535,32.612 -4.924,0 -9.597,-0.819 -13.912,-2.316 -6.015,3.292 -11.369,5.537 -18.54,6.944 -2.143,0.439 -2.996,0.396 -3.179,0.131 -0.212,-0.312 0.492,-0.924 1.115,-1.426 6.941,-5.421 8.101,-8.258 9.78,-11.437 -7.85,-5.944 -12.8,-14.728 -12.8,-24.508 0,-18.02 16.792,-32.632 37.536,-32.632 20.716,-0.001 37.535,14.612 37.535,32.632 z"
   inkscape:connector-curvature="0" /><text
   xml:space="preserve"
   style="font-size:40px;font-style:normal;font-weight:normal;line-height:125%;letter-spacing:0px;word-spacing:0px;fill:#ffffff;fill-opacity:1;stroke:none;font-family:Sans"
   x="25.267578"
   y="57.359375"
   id="text3766"
   sodipodi:linespacing="125%"><tspan
     sodipodi:role="line"
     id="tspan3768"
     x="25.267578"
     y="57.359375"
     style="font-size:32px;font-style:normal;font-variant:normal;font-weight:normal;font-stretch:normal;fill:#ffffff;font-family:Arial Rounded MT Bold;-inkscape-font-specification:Arial Rounded MT Bold"><tspan
   style="font-size:18px;fill:#ffffff"
   id="tspan3782">#</tspan>irc</tspan></text>

</svg>